<svg xmlns="http://www.w3.org/2000/svg" id="Layer_1" viewBox="0 0 240 78" data-name="Layer 1"><defs><style>.cls-1{fill:#fff;}</style></defs><path class="cls-1" d="M 26.58 41.72 a 3.45 3.45 0 0 0 -5.65 0 L 0.41 73.89 l 0 0 A 2.76 2.76 0 0 0 0 75.36 A 2.86 2.86 0 0 0 3.09 78 a 3.17 3.17 0 0 0 2.76 -1.45 L 11.26 68 h 25 l 5.44 8.55 A 3.18 3.18 0 0 0 44.53 78 a 2.86 2.86 0 0 0 3.09 -2.64 a 2.48 2.48 0 0 0 -0.49 -1.52 Z m -12 21 l 9.21 -14.64 L 33 62.73 Z" /><path class="cls-1" d="M 74.71 55.88 H 65.88 c -5.51 0 -8.3 -1.08 -8.3 -3.21 V 49 c 0 -2.65 4.73 -3.21 8.7 -3.21 h 6.09 c 2.28 0 3.09 -1.36 3.09 -2.64 s -0.81 -2.64 -3.09 -2.64 H 66.23 c -12.37 0 -15 4.59 -15 8.43 v 3.85 a 7 7 0 0 0 4 6.42 c 2.43 1.29 5.88 1.91 10.54 1.91 h 9 c 7.93 0 9.6 1.88 9.6 3.46 V 69 c 0 2.9 -5.33 3.51 -9.8 3.51 H 54.19 c -2.31 0 -3.14 1.42 -3.14 2.64 s 0.82 2.64 3.14 2.64 H 74.61 c 10.69 0 16.12 -2.92 16.12 -8.68 V 64.51 C 90.73 58.78 85.34 55.88 74.71 55.88 Z" /><path class="cls-1" d="M 175.85 41.72 a 3.45 3.45 0 0 0 -5.65 0 L 149.68 73.89 l 0 0 a 2.76 2.76 0 0 0 -0.39 1.44 A 2.86 2.86 0 0 0 152.36 78 a 3.17 3.17 0 0 0 2.76 -1.45 l 5.42 -8.6 h 25 L 191 76.51 A 3.18 3.18 0 0 0 193.8 78 a 2.86 2.86 0 0 0 3.09 -2.64 a 2.48 2.48 0 0 0 -0.49 -1.52 Z m -12 21 L 173 48.09 l 9.25 14.64 Z" /><path class="cls-1" d="M 224 55.88 h -8.84 c -5.51 0 -8.3 -1.08 -8.3 -3.21 V 49 c 0 -2.65 4.73 -3.21 8.7 -3.21 h 6.09 c 2.28 0 3.09 -1.36 3.09 -2.64 s -0.81 -2.64 -3.09 -2.64 H 215.5 c -12.37 0 -15 4.59 -15 8.43 v 3.85 a 7 7 0 0 0 4 6.42 c 2.43 1.29 5.88 1.91 10.54 1.91 h 9 c 7.93 0 9.6 1.88 9.6 3.46 V 69 c 0 2.9 -5.33 3.51 -9.8 3.51 H 203.47 c -2.31 0 -3.14 1.42 -3.14 2.64 s 0.82 2.64 3.14 2.64 h 20.42 c 10.69 0 16.12 -2.92 16.12 -8.68 V 64.51 C 240 58.78 234.61 55.88 224 55.88 Z" /><path class="cls-1" d="M 166.12 1.89 c -0.32 -0.55 -1.36 -2.3 -2.23 -1.79 c -3.45 2 1.42 3.05 -22.77 17.38 c -2.88 1.71 -27.47 16.66 -17.07 34.23 c 1.51 2.56 4.95 8.25 6.63 11 H 109.3 c 1.68 -2.78 5.11 -8.47 6.63 -11 c 10.4 -17.57 -14.19 -32.53 -17.07 -34.23 C 74.67 3.14 79.54 2.14 76.09 0.09 c -0.86 -0.51 -1.9 1.24 -2.23 1.79 C 71.64 5.63 73.57 20.77 81 25.18 c -2 3.46 1.62 13.14 9.29 17.68 c -3.19 5.4 2 11.38 14 19 l -7.67 12 l 0 0 a 2.76 2.76 0 0 0 -0.39 1.44 A 2.86 2.86 0 0 0 99.32 78 a 3.17 3.17 0 0 0 2.76 -1.45 L 107.5 68 h 25 L 138 76.51 A 3.18 3.18 0 0 0 140.77 78 a 2.86 2.86 0 0 0 3.09 -2.64 a 2.48 2.48 0 0 0 -0.49 -1.52 l -7.67 -12 c 12 -7.61 17.18 -13.59 14 -19 C 157.35 38.32 161 28.64 159 25.18 C 166.41 20.77 168.34 5.63 166.12 1.89 Z" /></svg>